PathFileType	4	(X/Y/Z)	Kaydara	
DataRate	CameraRate	NumFrames	NumMarkers	Units	OrigDataRate	OrigDataStartFrame	OrigNumFrames	
120.00	120.00	4	72	mm	120.00	33	261	
Frame#	Time	Hips			RightUpLeg			RightLeg			RightFoot			RightFoot_End			LeftUpLeg			LeftLeg			LeftFoot			LeftFoot_End			Spine			Spine1			Spine2			Spine3			Neck			Head			Head_End			RightShoulder			RightArm			RightForeArm			RightHand			RightHandThumb1			RightHandThumb2			RightHandThumb3			RightHandThumb3_End			RightInHandIndex			RightHandIndex1			RightHandIndex2			RightHandIndex3			RightHandIndex3_End			RightInHandMiddle			RightHandMiddle1			RightHandMiddle2			RightHandMiddle3			RightHandMiddle3_End			RightInHandRing			RightHandRing1			RightHandRing2			RightHandRing3			RightHandRing3_End			RightInHandPinky			RightHandPinky1			RightHandPinky2			RightHandPinky3			RightHandPinky3_End			LeftShoulder			LeftArm			LeftForeArm			LeftHand			LeftHandThumb1			LeftHandThumb2			LeftHandThumb3			LeftHandThumb3_End			LeftInHandIndex			LeftHandIndex1			LeftHandIndex2			LeftHandIndex3			LeftHandIndex3_End			LeftInHandMiddle			LeftHandMiddle1			LeftHandMiddle2			LeftHandMiddle3			LeftHandMiddle3_End			LeftInHandRing			LeftHandRing1			LeftHandRing2			LeftHandRing3			LeftHandRing3_End			LeftInHandPinky			LeftHandPinky1			LeftHandPinky2			LeftHandPinky3			LeftHandPinky3_End			
		X1	Y1	Z1	X2	Y2	Z2	X3	Y3	Z3	X4	Y4	Z4	X5	Y5	Z5	X6	Y6	Z6	X7	Y7	Z7	X8	Y8	Z8	X9	Y9	Z9	X10	Y10	Z10	X11	Y11	Z11	X12	Y12	Z12	X13	Y13	Z13	X14	Y14	Z14	X15	Y15	Z15	X16	Y16	Z16	X17	Y17	Z17	X18	Y18	Z18	X19	Y19	Z19	X20	Y20	Z20	X21	Y21	Z21	X22	Y22	Z22	X23	Y23	Z23	X24	Y24	Z24	X25	Y25	Z25	X26	Y26	Z26	X27	Y27	Z27	X28	Y28	Z28	X29	Y29	Z29	X30	Y30	Z30	X31	Y31	Z31	X32	Y32	Z32	X33	Y33	Z33	X34	Y34	Z34	X35	Y35	Z35	X36	Y36	Z36	X37	Y37	Z37	X38	Y38	Z38	X39	Y39	Z39	X40	Y40	Z40	X41	Y41	Z41	X42	Y42	Z42	X43	Y43	Z43	X44	Y44	Z44	X45	Y45	Z45	X46	Y46	Z46	X47	Y47	Z47	X48	Y48	Z48	X49	Y49	Z49	X50	Y50	Z50	X51	Y51	Z51	X52	Y52	Z52	X53	Y53	Z53	X54	Y54	Z54	X55	Y55	Z55	X56	Y56	Z56	X57	Y57	Z57	X58	Y58	Z58	X59	Y59	Z59	X60	Y60	Z60	X61	Y61	Z61	X62	Y62	Z62	X63	Y63	Z63	X64	Y64	Z64	X65	Y65	Z65	X66	Y66	Z66	X67	Y67	Z67	X68	Y68	Z68	X69	Y69	Z69	X70	Y70	Z70	X71	Y71	Z71	X72	Y72	Z72	

33	0.267	81.20300000000043	893.81699	129.612	152.31070999999974	887.4255100000001	70.13118	53.726990000000114	491.26609	-23.880420000000004	49.28481000000011	106.96011000000001	-73.80933000000002	-62.22591999999986	31.47338	61.85835000000001	24.0039799999995	874.6398699999999	202.40073	-70.95933000000059	483.39090000000004	317.89491999999996	-152.33145999999942	57.550529999999995	416.66055000000006	-303.3007600000001	-10.735639999999998	321.3511700000001	19.382140000000618	1012.97655	80.32466	-41.38599999999951	1072.1440999999998	33.08082	-109.35286999999971	1126.6947600000003	-18.25857	-181.08244999999988	1166.6353999999997	-70.26782999999999	-258.1370799999995	1211.30595	-123.68394	-328.77199999999993	1251.43301	-171.35061	-466.0195699999995	1332.4467200000001	-177.68583	-215.53967999999986	1193.7450900000001	-132.74385999999998	-166.79339000000073	1161.39176	-245.91338	-193.1983199999995	898.6750100000002	-220.15808999999996	-170.00828	640.7173299999998	-240.52182	-180.35472000000027	617.7485899999999	-271.5429500000001	-203.67169999999987	589.92258	-277.73076	-218.36122999999952	568.9812699999999	-278.15427	-229.2826099999993	550.18606	-275.18323	-174.05652999999984	609.55407	-262.1768	-181.8496100000002	558.22194	-273.42353	-196.33632000000034	525.0811400000001	-272.07958999999994	-210.97427999999945	511.15101000000004	-268.5028500000001	-226.88878999999997	504.1225299999999	-263.6933399999999	-170.00463000000036	607.2115599999998	-250.78104	-175.41150000000016	555.8759400000002	-255.58939999999998	-190.67078000000038	519.5733699999998	-252.57131000000004	-208.06770999999935	502.70032999999995	-247.51153	-225.35310000000027	494.97740999999996	-241.88710000000003	-166.84249	606.8198399999999	-242.51288	-168.6488300000001	560.3363800000001	-239.84945	-181.38074000000051	528.6339	-235.62465	-197.85975999999937	512.32612	-229.89746000000002	-213.96941999999945	505.04929000000004	-224.20787	-163.76467999999932	608.2229600000001	-232.10647999999998	-163.18894	566.28053	-223.48645	-172.49069999999938	541.00221	-217.62731000000002	-184.07835999999952	529.15942	-212.25210999999996	-198.10015999999996	522.7433599999999	-206.52273999999997	-250.17702999999983	1197.6444099999999	-78.76756999999999	-284.7349699999995	1150.0276400000002	35.59613	-167.23274000000038	935.60078	-65.77476	-70.95103999999992	719.66112	-173.42545	-69.4314200000008	708.16872	-211.66858000000002	-43.23979999999938	699.48449	-236.05793000000003	-23.238899999999376	691.1314	-249.64799999999994	-5.05847999999969	682.1955800000001	-258.0734	-64.8480099999997	697.52414	-203.90794999999997	-40.89400000000023	660.88428	-234.00669	-14.241590000000542	642.4690999999999	-250.14714000000004	4.514479999999821	639.6290799999999	-257.97372000000007	21.513600000000224	643.08524	-262.96247	-60.417489999999816	692.8657600000001	-193.39897000000002	-34.65984000000026	654.6065999999998	-217.07343	-5.057399999999689	634.0249899999999	-233.19561	17.820349999999962	630.3649700000001	-241.92295000000001	36.541619999999966	634.03305	-247.03387	-57.98368000000028	690.41532	-185.23889	-33.03591000000051	653.7244899999998	-199.46774999999997	-6.7431100000003426	635.34909	-211.95901999999998	15.585149999999885	631.58698	-219.54830999999996	33.3114800000003	634.9260999999999	-223.96106000000003	-55.20227999999952	689.3952399999998	-174.70522	-30.883380000000216	654.78557	-181.38096	-9.170930000000226	639.5511100000001	-188.88606999999996	7.43377000000055	636.5554099999999	-193.21364	23.31963999999971	639.36853	-196.42734
34	0.275	81.20300000000043	893.81699	129.612	152.79701999999997	887.8345499999999	70.67448000000002	53.9350400000003	491.58241000000004	-22.65164	48.986869999999726	107.14185999999998	-71.48495	-62.532970000000205	31.74288	64.22404	23.43256999999994	874.1656399999999	201.82066000000003	-71.74384000000009	482.78322	316.68559	-154.00741000000016	57.648880000000005	417.72811	-305.5762300000006	-9.34282	322.45161	19.675279999999475	1013.2085899999998	80.51976999999998	-40.95345999999972	1072.55382	33.31971	-108.79769000000033	1127.2801299999999	-17.994929999999993	-180.44042999999965	1167.3707900000002	-70.00848	-257.4052700000002	1212.20858	-123.41392	-327.9522399999996	1252.4995599999997	-171.07257	-464.97675999999956	1333.8980299999996	-177.30303	-214.74120999999923	1194.7903000000001	-132.43537	-164.54960000000028	1165.2075	-245.73117000000002	-189.55193000000054	901.9090700000002	-225.00754999999998	-161.6952599999995	644.66716	-248.35774	-171.18623000000025	622.09357	-279.93742999999995	-194.0040399999998	594.06255	-286.99908999999997	-208.39138000000003	572.93347	-288.0316700000001	-219.09973999999966	553.9432300000001	-285.56883000000005	-164.93664999999964	613.8265799999999	-270.60246	-171.8203800000001	562.5929599999998	-282.84739	-185.8656600000004	529.23983	-282.31523	-200.36776999999984	515.0525499999998	-279.22960000000006	-216.26332000000002	507.7267999999999	-274.8174200000001	-161.04910999999993	611.3449	-259.17893	-165.6578899999995	560.0301699999999	-264.94584999999995	-180.4603500000003	523.4768800000002	-262.80683	-197.70532000000003	506.28445999999997	-258.33631	-214.97577	498.2318300000001	-253.14505000000003	-158.02448000000004	610.85493	-250.8647	-159.22957000000042	564.31243	-249.01744000000002	-171.5900300000003	532.3719099999998	-245.55043	-187.93664999999964	515.7457	-240.38716999999997	-204.03899	508.15394	-235.10276	-155.14588999999978	612.12165	-240.38404000000003	-154.13508000000002	570.0496500000002	-232.46383999999998	-163.1836999999996	544.55051	-227.19484999999997	-174.69621000000006	532.4608499999999	-222.22292999999996	-188.7238500000003	525.75741	-216.84784	-249.5695799999994	1198.28982	-78.55468	-285.12555000000066	1148.17692	34.42821000000001	-164.48261999999977	936.5659	-69.14674000000001	-62.65096999999969	725.2345700000001	-180.76285	-60.416259999999966	714.4760999999999	-219.18398000000002	-33.758240000000114	706.5293899999999	-243.31813	-13.459919999999329	698.64576	-256.7466999999999	4.945029999999861	690.06354	-265.05134	-55.83661000000029	703.7378	-211.55129999999997	-31.02143999999953	667.9248100000001	-241.94612	-3.9232199999996737	650.1000800000002	-258.00692	14.981249999999818	647.6072000000001	-265.59097999999994	32.01633000000038	651.33723	-270.24879	-51.517799999999625	698.9312800000001	-201.06254	-24.98059000000012	661.39849	-225.03682	5.09060000000045	641.4389799999999	-241.07342999999997	28.138880000000427	638.1871000000001	-249.50881999999996	46.89537999999993	642.14966	-254.25797	-49.18333999999959	696.3548	-192.91227	-23.618620000000192	660.20473	-207.42730000000006	3.063379999999597	642.3477099999999	-219.84487000000001	25.54584000000068	638.9666200000001	-227.15301	43.300420000000486	642.57663	-231.22582	-46.55360000000019	695.1676800000001	-182.35717	-21.756860000000415	660.9503500000001	-189.29255000000003	0.23433999999997468	646.0914400000001	-196.73874000000004	16.935590000000047	643.3545200000001	-200.86128	32.83732999999938	646.3965899999998	-203.77388
35	0.283	81.20300000000043	893.81699	129.612	153.2432200000003	888.18305	71.18607	54.01931000000059	491.85013	-21.41008	48.598839999999655	107.27349	-69.10852	-62.91998000000058	31.854450000000003	66.59015000000002	22.904320000000553	873.75929	201.28236999999996	-72.36677000000054	482.1360399999999	315.24442	-155.57136999999966	57.72209999999999	418.5202100000001	-307.8627200000001	-7.702679999999999	323.30700999999993	19.96151000000009	1013.4152600000001	80.66514000000001	-40.4968200000003	1073.01942	33.572889999999994	-108.1508300000005	1128.05874	-17.658069999999995	-179.57207000000017	1168.5338999999997	-69.67844	-256.31668999999965	1213.7793700000002	-123.05695000000001	-326.6552899999997	1254.4529099999997	-170.69861999999998	-463.4672100000007	1336.2091	-176.91730000000004	-213.47904000000017	1196.7362099999998	-131.97159	-161.84051999999974	1169.93433	-245.30914999999996	-185.2145099999998	906.1307900000002	-229.75293	-152.62998000000061	649.73144	-256.06355	-161.23816999999963	627.5865900000001	-288.19495000000006	-183.5418499999996	599.3830699999999	-296.15513	-197.62045000000035	578.0866000000001	-297.81453999999997	-208.11357000000044	558.9163899999999	-295.87521	-155.04801000000043	619.2419999999998	-278.88947	-161.01306999999997	568.1423699999999	-292.13535	-174.61252999999942	534.6020999999998	-292.43370999999996	-188.9748300000001	520.1726699999999	-289.85936000000004	-204.8473100000001	512.56164	-285.86698	-151.3356700000004	616.6137899999999	-267.4404599999999	-155.14310999999998	565.3505599999999	-274.16986	-169.48543999999947	528.57294	-272.93064999999996	-186.57437000000027	511.07872	-269.0738999999999	-203.82571999999982	502.70925	-264.34047000000004	-148.45643000000018	616.01944	-259.08153	-149.06424999999945	569.4399799999999	-258.05468	-161.05185999999958	537.28326	-255.36386	-177.26294000000053	520.3549699999999	-250.78832	-193.35440999999992	512.4600899999999	-245.93235	-145.78642000000036	617.1417600000002	-248.52946000000003	-144.34993999999915	574.95551	-241.31414	-153.14660999999978	549.25114	-236.65050999999997	-164.58281999999963	536.92559	-232.09944999999996	-178.61381999999958	529.9447	-227.09936999999996	-248.79535000000033	1199.2058499999996	-78.35209999999998	-285.28485999999975	1146.52201	33.15391999999999	-161.70388000000003	937.6067999999999	-72.41069000000002	-52.431469999999536	732.9568900000002	-189.31548999999998	-49.471559999999954	722.99213	-227.90129	-22.34983999999986	715.80842	-251.75635	-1.7572000000000116	708.4073699999999	-265.01033	16.86862999999994	700.1857500000001	-273.18632999999994	-44.89814999999999	712.15197	-220.41017	-19.219280000000253	677.21487	-251.10549	8.320910000000367	659.99896	-267.0784300000001	27.369109999999637	657.85596	-274.40542	44.43477999999959	661.85626	-278.7139199999999	-40.694760000000315	707.1822900000001	-209.95060000000004	-13.377520000000004	670.4155699999999	-234.23384000000001	17.157710000000407	651.0960400000001	-250.17708	40.37064999999984	648.25457	-258.30352999999997	59.1563500000002	652.50718	-262.67105	-38.46230000000014	704.4680599999999	-201.81647000000004	-12.282360000000153	668.8845499999999	-216.6318	14.784210000000712	651.55922	-228.97002	37.41494000000057	648.5601399999999	-235.98126	55.19198000000051	652.43629	-239.69574000000003	-35.987739999999576	703.0978700000001	-191.24604	-10.716749999999593	669.28715	-198.45825	11.548689999999624	654.81078	-205.84274	28.3417900000004	652.3316099999997	-209.74961	44.25403000000006	655.5974100000001	-212.34531000000004
36	0.292	81.20300000000043	893.81699	129.612	153.63819999999942	888.5218999999998	71.64452	53.959170000000086	492.12568	-20.18869	48.11776999999984	107.41960000000003	-66.78084	-63.4051900000004	32.07683	68.95680000000002	22.445770000000266	873.3727099999999	200.79703	-72.82501000000047	481.43397999999996	313.66955	-157.21058999999968	57.76446	419.02280999999994	-309.8750199999995	-6.818609999999998	323.83242	20.17233000000033	1013.5813399999998	80.80813	-40.133489999999256	1073.5231700000002	33.9495	-107.55455000000075	1129.0271399999997	-17.086880000000004	-178.58261999999922	1170.17916	-69.11452999999999	-254.94316999999955	1216.1318300000003	-122.43969999999999	-324.91190000000006	1257.46759	-170.05603999999997	-461.51969999999983	1339.5621299999998	-176.30485000000002	-211.70859999999993	1199.9753	-131.08509	-158.61361999999917	1175.9255499999997	-244.36709	-180.17839000000004	911.70804	-234.13401	-142.78863	656.2830200000001	-263.36908	-150.48835999999937	634.6029700000001	-296.0434	-172.25904000000082	606.2583099999999	-304.92458999999997	-186.01868000000013	584.81378	-307.22773	-196.29057999999986	565.4775500000001	-305.82704	-144.3657800000001	626.1753300000001	-286.76812000000007	-149.39678999999978	575.24611	-301.01984	-162.5402699999995	541.54277	-302.16770999999994	-176.75552999999945	526.88467	-300.12365	-192.59832000000006	518.99852	-296.57162	-140.83724000000075	623.3924200000001	-275.2975599999999	-143.83300000000054	572.2118099999999	-282.99632999999994	-157.70528999999988	535.2349300000001	-282.67820000000006	-174.6300200000005	517.4546099999999	-279.45837	-191.85530999999992	508.77912000000003	-275.2053899999999	-138.10986999999932	622.68699	-266.89645	-138.11679000000004	576.09268	-266.6979	-149.72414000000026	543.7403400000001	-264.8023299999999	-165.79248000000007	526.5244100000001	-260.83715000000007	-181.8668600000001	518.33629	-256.43101	-135.65625	623.65613	-256.2768699999999	-133.79565999999977	581.3704800000002	-249.77560999999997	-142.3363900000004	555.4752700000001	-245.73338	-153.6919600000001	542.92339	-241.62006000000002	-167.7213299999994	535.6732	-237.01419000000004	-248.05785000000014	1200.1834899999997	-78.10321	-285.4611500000001	1144.91308	31.836950000000005	-158.28441999999995	939.3893199999999	-76.08791000000001	-45.68393999999989	737.78626	-195.10938999999996	-41.946240000000216	728.64258	-233.83075999999997	-14.33752000000004	722.24281	-257.34796	6.562949999999546	715.3385300000002	-270.38641999999993	25.41859999999997	707.4889699999999	-278.39967000000007	-37.380989999999656	717.70261	-226.48108	-10.784020000000055	683.68048	-257.4214099999999	17.220039999999244	667.09518	-273.25442	36.41482999999971	665.30993	-280.28892	53.506179999999404	669.58321	-284.2166900000001	-33.30309000000034	712.56704	-216.05202	-5.158159999999953	676.60303	-240.59082000000004	25.86348999999973	657.94675	-256.38422	49.24380999999994	655.52497	-264.15915	68.05299999999988	660.0704599999999	-268.11075	-31.180939999999282	709.7121900000001	-207.93651999999994	-4.349880000000667	674.72576	-223.0068	23.119160000000193	657.95185	-235.21689	45.89991000000009	655.3434200000002	-241.89035999999996	63.69363000000067	659.4882499999999	-245.21439999999998	-28.873959999999897	708.1540200000002	-197.35423	-3.1028800000003685	674.77509	-204.80422000000004	19.448420000000624	660.6960600000001	-212.08881999999997	36.33333000000039	658.4804299999998	-215.75064	52.25021000000015	661.9719200000001	-218.00122000000002
